<?xml version="1.0" encoding="utf-8"?>
<!-- Generator: Adobe Illustrator 26.0.2, SVG Export Plug-In . SVG Version: 6.00 Build 0)  -->
<svg version="1.1" id="Layer_1" xmlns="http://www.w3.org/2000/svg" xmlns:xlink="http://www.w3.org/1999/xlink" x="0px" y="0px"
	 viewBox="0 0 477.4 404.6" style="enable-background:new 0 0 477.4 404.6;" xml:space="preserve">
<style type="text/css">
	.st0{fill:#067AFF;}
	.st1{fill:url(#SVGID_1_);}
</style>
<g>
	<g>
		<g>
			<path class="st0" d="M260.7,219c-22.7,0-41.2-14.3-41.2-37.3c0-23.2,18.3-37.7,40.7-37.7c13.2,0,25.7,6,31.2,10.4v17.1
				c-5.1-4.8-15.3-12.3-29.6-12.3c-13,0-25.4,8.6-25.4,22.5c0,13.7,12.7,22.2,25.9,22.2c14.1,0,24.1-7.9,29.2-13.2v17.3
				C286.4,212.7,274.2,219,260.7,219z"/>
		</g>
	</g>
	<g>
		<linearGradient id="SVGID_1_" gradientUnits="userSpaceOnUse" x1="203.3766" y1="286.8763" x2="299.3192" y2="83.6389">
			<stop  offset="0.1546" style="stop-color:#067AFF;stop-opacity:0.25"/>
			<stop  offset="0.7148" style="stop-color:#067AFF"/>
		</linearGradient>
		<path class="st1" d="M336.8,213.1c-9.4-13.2-22.5-26.9-38.2-39.8c-0.5,2-1.8,3.7-3.6,4.7c15.2,12.5,28,25.7,37,38.5
			c6.3,8.8,10.4,16.9,12.2,24c1.7,6.9,1.2,12.4-1.5,16.4c-1,1.5-2.3,2.7-3.8,3.8c-1.3-8.7-5.9-18.9-13.9-30.1
			c-6.8-9.6-15.6-19.4-25.9-29v6.3c0,0.6-0.1,1.1-0.2,1.7c8.4,8.1,15.6,16.4,21.3,24.5c6.3,8.8,10.4,16.9,12.2,24
			c0.5,1.9,0.8,3.6,0.9,5.3c-1.6,0.5-3.3,0.9-5.2,1.1c-1.6,0.2-3.3,0.3-5.2,0.4c-2.3-5.2-5.6-10.8-9.7-16.7
			c-6.7-9.4-15.3-19.1-25.4-28.5c-1.8,1-3.7,1.9-5.8,2.7c10.5,9.7,19.5,19.6,26.4,29.3c3.2,4.5,5.9,8.9,7.9,13
			c-4.6-0.4-9.6-1.2-15-2.5c-22.1-5.3-47.9-17.6-72.9-34.5s-45.9-36.4-59-55c-3.2-4.5-5.9-8.9-7.9-13c4.6,0.4,9.6,1.2,15,2.5
			c11.2,2.7,23.5,7.2,36.1,13.2c0.3-2,0.7-4,1.2-6c-12.5-5.9-24.6-10.3-35.8-13c-7-1.7-13.4-2.6-19.1-2.9c-0.6-1.7-1.2-3.3-1.6-4.9
			c-0.1-0.2-0.1-0.5-0.2-0.7l0.1-0.1l-0.1-0.1c-0.3-1.5-0.6-3-0.7-4.4c1.6-0.5,3.3-0.9,5.2-1.1c7.3-0.9,16.3-0.1,26.8,2.4
			c9.9,2.4,20.6,6.2,31.7,11.2c1.2-1.7,2.5-3.2,3.9-4.7c-11.9-5.5-23.5-9.7-34.2-12.3c-13.4-3.2-24.6-3.8-33.1-1.8
			c0.4-1.8,1.1-3.5,2.1-4.9c2.7-4.1,7.7-6.6,14.7-7.5c7.3-0.9,16.3-0.1,26.8,2.4c11.7,2.8,24.6,7.7,37.8,14.1c2.5-1.1,5-2,7.7-2.8
			c-15.4-7.9-30.4-13.8-44.1-17.1c-23-5.6-39.7-3.2-47.2,6.7l0,0l-0.6,0.8l-11.9,17.5l-11.9,17.5l-0.6,0.8l0,0
			c-6.4,10.6-2.4,27,11.3,46.3c13.5,19.1,35,39.1,60.5,56.4c25.5,17.3,52.1,29.9,74.8,35.4c23,5.6,39.7,3.2,47.2-6.7l0,0l24.9-36.8
			l0,0C354.5,248.8,350.5,232.4,336.8,213.1z M318.9,292c-2.7,4.1-7.7,6.6-14.7,7.5c-7.3,0.9-16.3,0.1-26.8-2.4
			c-22.1-5.3-47.9-17.6-72.9-34.5c-25-16.9-45.9-36.4-59-55c-6.3-8.8-10.4-16.9-12.2-24c-1.7-6.9-1.2-12.4,1.5-16.4
			c1-1.5,2.3-2.7,3.8-3.8c1.3,8.7,5.9,18.9,13.9,30.1c13.5,19.1,35,39.1,60.5,56.4c25.5,17.3,52.1,29.9,74.8,35.4
			c13.4,3.2,24.6,3.8,33.1,1.8C320.5,288.9,319.9,290.6,318.9,292z M316,282c-7.3,0.9-16.3,0.1-26.8-2.4
			c-22.1-5.3-47.9-17.6-72.9-34.5c-25-16.9-45.9-36.4-59-55c-6.3-8.8-10.4-16.9-12.2-24c-0.5-1.9-0.8-3.6-0.9-5.3
			c1.6-0.5,3.3-0.9,5.2-1.1c1.6-0.2,3.3-0.3,5.2-0.4c2.3,5.2,5.6,10.8,9.7,16.7c13.5,19.1,35,39.1,60.5,56.4
			c25.5,17.3,52.1,29.9,74.8,35.4c7,1.7,13.4,2.6,19.1,2.9c0.6,1.7,1.2,3.3,1.6,4.9c0.5,1.9,0.8,3.6,0.9,5.3
			C319.7,281.3,318,281.7,316,282z"/>
	</g>
	<g>
		<path class="st0" d="M242.8,147.2c5.6,7.3,27.3,7.2,33.6-0.5c-3.3-1.1-6.9-1.9-10.7-2.4c0.1,0.6,0.2,1.2,0.2,1.8
			c-0.2,6-19.8,8-17-0.8C246.7,145.8,244.7,146.4,242.8,147.2z"/>
		<path class="st0" d="M251.2,137.1c0.8-4.3,0.9-8.4,0.7-10.9c-0.1-1.4,1.7-0.3,2.6,0.8c0.5,0.7,1.1,1.5,1.8,2.3
			c1.3-3.5,1.9-6.6,2.2-9.1c0.1-1.4,1.6-1.8,2.3-0.6c2.5,4.4,8.5,11.7,9.4,17.6c2.6,0.5,5,1.1,7.4,1.8c-0.3-0.9-0.7-1.9-1.4-2.9
			c-7.8-13.1-10.7-27.1-11.5-35.5c-0.3-2.9-4-2.2-5.4,0.4c-5.1,9.5-16.9,25.9-18,38.5C244.4,138.5,247.7,137.7,251.2,137.1z"/>
	</g>
</g>
</svg>
