<?xml version="1.0" encoding="utf-8"?>
<!-- Generator: Adobe Illustrator 26.0.2, SVG Export Plug-In . SVG Version: 6.00 Build 0)  -->
<svg version="1.1" id="Layer_1" xmlns="http://www.w3.org/2000/svg" xmlns:xlink="http://www.w3.org/1999/xlink" x="0px" y="0px"
	 viewBox="0 0 1000 500" style="enable-background:new 0 0 1000 500;" xml:space="preserve">
<style type="text/css">
	.st0{fill:#067AFF;}
	.st1{fill:url(#SVGID_1_);}
</style>
<g>
	<g>
		<path class="st0" d="M321.6,267.1c-7.7,0-12.3-2.1-14.6-9.6c-5.6,7.4-14,9.8-24.6,9.8c-14.2,0-24.9-8.6-24.9-21.7
			c0-25.6,46.8-17.9,46.8-32.3c0-5.3-4.9-7-11.4-7c-9.1,0-20.3,2.8-30.5,8.6v-14.6c8.6-4.6,19.8-7.7,31.2-7.7
			c16.1,0,26.8,7.7,26.8,24v29.8c0,4.7,0.5,6.3,5.3,6.3c1.2,0,3.9-0.5,5.4-0.9v14C329.2,266.4,325,267.1,321.6,267.1z M274.6,245.5
			c0,5.4,4.2,7.9,10.3,7.9c8.4,0,19.3-4.2,19.3-15.4v-8.1C298.5,235.7,274.6,235.7,274.6,245.5z"/>
		<path class="st0" d="M387.6,230.2c0-14.2-5.4-22.6-18.6-22.6c-9.6,0-17.9,4.6-21.6,8.1v50.5h-16.5v-72.8h16.5v8.2
			c4.6-3.9,14.4-8.9,24.6-8.9c23.1,0,32.6,14.6,32.6,37.4v36.1h-17V230.2z"/>
		<path class="st0" d="M407,229.4c0-20.9,14.2-36.8,36.5-36.8c11.2,0,21.4,5.3,26,9.1v-8.1v-35.9l16.3-4.7v113.3h-16.3l0.2-9.1
			c-4.6,4.4-14.9,10-26.1,10C421.4,267.1,407,250.4,407,229.4z M469.5,243v-27.4c-4.4-3.5-13.7-8.2-23.3-8.2
			c-13.5,0-22.3,10.2-22.3,22.3c0,12.5,8.8,22.4,22.3,22.4C456.1,252.2,465.3,246.9,469.5,243z"/>
		<path class="st0" d="M511.4,267.1c-13.5,0-19.3-8.4-19.3-21.6V158l16.5-4.7v91.9c0,4.6,1.8,6.3,7.4,6.3c1.2,0,3.7-0.5,5.3-0.9
			v15.3C518.9,266.4,514.7,267.1,511.4,267.1z"/>
		<path class="st0" d="M561.4,253.4c18.4,0,33-9.5,33-9.5v14c0,0-12.6,9.3-32.8,9.3c-27,0-40.5-17-40.5-37.5
			c0-20.3,14.2-37.4,37.4-37.4c21,0,37.7,14.4,37.7,39.3c0,1.1,0,2.1-0.2,4.6h-58C538.7,244.8,546.6,253.4,561.4,253.4z
			 M559.3,206.2c-11.9,0-19.6,7.7-21.4,17.2h42.6C579.4,215.2,572.4,206.2,559.3,206.2z"/>
		<path class="st0" d="M628.2,267.2c-10.7,0.2-21-2.8-29.6-8.1v-15.1c7.2,5.6,20.9,9.5,28.6,9.3c4.9-0.2,11.6-1.8,11.6-7.7
			c0-14.2-39.1-5.6-39.1-31.4c0-14.4,11.7-21.6,26.1-21.7c9.3-0.2,18.8,2.1,25.8,6.1v15.1c-6.3-4.4-16.8-7.5-23.5-7.5
			c-5.3,0-11.7,1.4-11.7,7.4c0,13,39.3,5.6,39.3,30.7C655.5,259.2,643.6,267.2,628.2,267.2z"/>
		<path class="st0" d="M690.1,267.2c-16.7,0-24.4-8.1-24.4-27v-32.6h-12.3l4-14.4h8.2v-16.1l16.7-4.9v21h23.3v14.4h-23.3v31
			c0,8.2,2.5,13,10,13c6,0,12.8-3.9,16.5-6.7v15.8C705.3,263.6,698,267.2,690.1,267.2z"/>
		<path class="st0" d="M770.2,267.1c-7.7,0-12.3-2.1-14.6-9.6c-5.6,7.4-14,9.8-24.6,9.8c-14.2,0-24.9-8.6-24.9-21.7
			c0-25.6,46.8-17.9,46.8-32.3c0-5.3-4.9-7-11.4-7c-9.1,0-20.3,2.8-30.5,8.6v-14.6c8.6-4.6,19.8-7.7,31.2-7.7
			c16.1,0,26.8,7.7,26.8,24v29.8c0,4.7,0.5,6.3,5.3,6.3c1.2,0,3.9-0.5,5.4-0.9v14C777.8,266.4,773.5,267.1,770.2,267.1z
			 M723.2,245.5c0,5.4,4.2,7.9,10.3,7.9c8.4,0,19.3-4.2,19.3-15.4v-8.1C747.1,235.7,723.2,235.7,723.2,245.5z"/>
		<path class="st0" d="M796.7,232.5v33.7H780V158l16.7-5.1V222l25.4-28.6h22.6l-33,33.1l36.7,39.6h-22.3L796.7,232.5z"/>
		<path class="st0" d="M876.1,253.4c18.4,0,33-9.5,33-9.5v14c0,0-12.6,9.3-32.8,9.3c-27,0-40.5-17-40.5-37.5
			c0-20.3,14.2-37.4,37.4-37.4c21,0,37.7,14.4,37.7,39.3c0,1.1,0,2.1-0.2,4.6h-58C853.5,244.8,861.4,253.4,876.1,253.4z M874,206.2
			c-11.9,0-19.6,7.7-21.4,17.2h42.6C894.2,215.2,887.2,206.2,874,206.2z"/>
	</g>
	<g>
		<g>
			<g>
				<path class="st0" d="M223.5,266.7c-22.7,0-41.2-14.3-41.2-37.3c0-23.2,18.3-37.7,40.7-37.7c13.2,0,25.7,6,31.2,10.4v17.1
					c-5.1-4.8-15.3-12.3-29.6-12.3c-13,0-25.4,8.6-25.4,22.5c0,13.7,12.7,22.2,25.9,22.2c14.1,0,24.1-7.9,29.2-13.2v17.3
					C249.2,260.3,237.1,266.7,223.5,266.7z"/>
			</g>
		</g>
		<g>
			<path class="st0" d="M205.6,194.9c5.6,7.3,27.3,7.2,33.6-0.5c-3.3-1.1-6.9-1.9-10.7-2.4c0.1,0.6,0.2,1.2,0.2,1.8
				c-0.2,6-19.8,8-17-0.8C209.5,193.5,207.5,194.1,205.6,194.9z"/>
			<path class="st0" d="M214,184.8c0.8-4.3,0.9-8.4,0.7-10.9c-0.1-1.4,1.7-0.3,2.6,0.8c0.5,0.7,1.1,1.5,1.8,2.3
				c1.3-3.5,1.9-6.6,2.2-9.1c0.1-1.4,1.6-1.8,2.3-0.6c2.5,4.4,8.5,11.7,9.4,17.6c2.6,0.5,5,1.1,7.4,1.8c-0.3-0.9-0.7-1.9-1.4-2.9
				c-7.8-13.1-10.7-27.1-11.5-35.5c-0.3-2.9-4-2.2-5.4,0.4c-5.1,9.5-16.9,25.9-18,38.5C207.3,186.2,210.6,185.4,214,184.8z"/>
		</g>
		<linearGradient id="SVGID_1_" gradientUnits="userSpaceOnUse" x1="166.2035" y1="334.5582" x2="262.146" y2="131.3209">
			<stop  offset="0.1546" style="stop-color:#067AFF;stop-opacity:0.25"/>
			<stop  offset="0.7148" style="stop-color:#067AFF"/>
		</linearGradient>
		<path class="st1" d="M307.5,273.6c-0.8-0.5-1.6-1-2.4-1.7c-1.3,0.7-2.7,1.4-4.1,2c2.9,5.1,4.9,9.9,6,14.4
			c1.7,6.9,1.2,12.4-1.5,16.4c-1,1.5-2.3,2.7-3.8,3.8c-1.3-8.7-5.9-18.9-13.9-30.1c-0.3-0.5-0.7-1-1-1.4c-1.4,0.1-2.7,0.1-4.2,0.1
			c-1.1,0-2.1,0-3.2-0.1c1.3,1.6,2.5,3.2,3.6,4.8c6.3,8.8,10.4,16.9,12.2,24c0.5,1.9,0.8,3.6,0.9,5.3c-1.6,0.5-3.3,0.9-5.2,1.1
			c-1.6,0.2-3.3,0.3-5.2,0.4c-2.3-5.2-5.6-10.8-9.7-16.7c-6.7-9.4-15.3-19.1-25.4-28.5c-1.8,1-3.7,1.9-5.8,2.7
			c10.5,9.7,19.5,19.6,26.4,29.3c3.2,4.5,5.9,8.9,7.9,13c-4.6-0.4-9.6-1.2-15-2.5c-22.1-5.3-47.9-17.6-72.9-34.5
			c-25-16.9-45.9-36.4-59-55c-3.2-4.5-5.9-8.9-7.9-13c4.6,0.4,9.6,1.2,15,2.5c11.2,2.7,23.5,7.2,36.1,13.2c0.3-2,0.7-4,1.2-6
			c-12.5-5.9-24.6-10.3-35.8-13c-7-1.7-13.4-2.6-19.1-2.9c-0.6-1.7-1.2-3.3-1.6-4.9c-0.1-0.2-0.1-0.5-0.2-0.7l0.1-0.1l-0.1-0.1
			c-0.3-1.5-0.6-3-0.7-4.4c1.6-0.5,3.3-0.9,5.2-1.1c7.3-0.9,16.3-0.1,26.8,2.4c9.9,2.4,20.6,6.2,31.7,11.2c1.2-1.7,2.5-3.2,3.9-4.7
			c-11.9-5.5-23.5-9.7-34.2-12.3c-13.4-3.2-24.6-3.8-33.1-1.8c0.4-1.8,1.1-3.5,2.1-4.9c2.7-4.1,7.7-6.6,14.7-7.5
			c7.3-0.9,16.3-0.1,26.8,2.4c11.7,2.8,24.6,7.7,37.8,14.1c2.5-1.1,5-2,7.7-2.8c-15.4-7.9-30.4-13.8-44.1-17.1
			c-23-5.6-39.7-3.2-47.2,6.7l0,0l-0.6,0.8L104.6,194l-11.9,17.5l-0.6,0.8l0,0c-6.4,10.6-2.4,27,11.3,46.3
			c13.5,19.1,35,39.1,60.5,56.4c25.5,17.3,52.1,29.9,74.8,35.4c23,5.6,39.7,3.2,47.2-6.7l0,0l24.9-36.8l0,0
			C315.9,298.9,314.6,287.3,307.5,273.6z M281.7,339.7c-2.7,4.1-7.7,6.6-14.7,7.5c-7.3,0.9-16.3,0.1-26.8-2.4
			c-22.1-5.3-47.9-17.6-72.9-34.5c-25-16.9-45.9-36.4-59-55c-6.3-8.8-10.4-16.9-12.2-24c-1.7-6.9-1.2-12.4,1.5-16.4
			c1-1.5,2.3-2.7,3.8-3.8c1.3,8.7,5.9,18.9,13.9,30.1c13.5,19.1,35,39.1,60.5,56.4c25.5,17.3,52.1,29.9,74.8,35.4
			c13.4,3.2,24.6,3.8,33.1,1.8C283.4,336.6,282.7,338.2,281.7,339.7z M278.9,329.6c-7.3,0.9-16.3,0.1-26.8-2.4
			c-22.1-5.3-47.9-17.6-72.9-34.5c-25-16.9-45.9-36.4-59-55c-6.3-8.8-10.4-16.9-12.2-24c-0.5-1.9-0.8-3.6-0.9-5.3
			c1.6-0.5,3.3-0.9,5.2-1.1c1.6-0.2,3.3-0.3,5.2-0.4c2.3,5.2,5.6,10.8,9.7,16.7c13.5,19.1,35,39.1,60.5,56.4
			c25.5,17.3,52.1,29.9,74.8,35.4c7,1.7,13.4,2.6,19.1,2.9c0.6,1.7,1.2,3.3,1.6,4.9c0.5,1.9,0.8,3.6,0.9,5.3
			C282.5,329,280.8,329.4,278.9,329.6z"/>
	</g>
</g>
</svg>
